# xmcd CD database file
# Copyright (C) 1993-1998 Ti Kan
#
# Track frame offsets:
#  150
#  19960
#  34328
#  48718
#  63245
#  74710
#  88405
#  100885
#  113183
#  125010
#  138920
#  152935
#  164825
#  181453
#  193748
#  206463
#  220040
#  230325
#  242700
#  253728
#
# Disc length: 3556 seconds
#
# Revision: 1
# Processed by: cddbd v1.4b41PL1 Copyright (c) Steve Scherf et al.
# Submitted via: CDWizzard Release:4.35
#
DISCID=390de214
DTITLE=Moe Bandy - The Very Best Of Moe Bandy
DYEAR=1900
DGENRE=
TTITLE0=Americana
TTITLE1=Till I'm Too Old To Die Young
TTITLE2=Someday Soon
TTITLE3=Hank Williams You Wrote My Life
TTITLE4=Just Good Ol' Boys
TTITLE5=I Just Started Hatin' Cheatin' Songs Today
TTITLE6=Cowboys Ain't Supposed To Cry
TTITLE7=Barstool Mountain
TTITLE8=It Was Always So Easy (To Find An Unhappy Woman)
TTITLE9=I Just Cheated Me Right Out Of You
TTITLE10=Bandy The Rodeo Clown
TTITLE11=It's A Cheating Situation
TTITLE12=You Haven't Heard The Last Of Me
TTITLE13=I've Got My Mojo Working
TTITLE14=Soft Lights And Hard Countryr Music
TTITLE15=Rodeo Romeo
TTITLE16=Tell Old I Ain't Here To Get On Home
TTITLE17=She's Not Really Cheatin' (She's Just Gettin' Even)
TTITLE18=That's What Makes The Jukebox Play
TTITLE19=Yesterday Once More
EXTD=
EXTT0=
EXTT1=
EXTT2=
EXTT3=
EXTT4=
EXTT5=
EXTT6=
EXTT7=
EXTT8=
EXTT9=
EXTT10=
EXTT11=
EXTT12=
EXTT13=
EXTT14=
EXTT15=
EXTT16=
EXTT17=
EXTT18=
EXTT19=
PLAYORDER=
